<?xml version="1.0" encoding="utf8"?>
<svg width="30px" height="31px" viewBox="0 0 30 31" version="1.1" xmlns:xlink="http://www.w3.org/1999/xlink" xmlns="http://www.w3.org/2000/svg">
  <path d="M54.3381 45.667C53.9655 45.6537 53.5926 45.6403 53.22 45.627C53.1519 45.627 53.0789 45.6284 53.004 45.6298C52.7397 45.6348 52.4509 45.6403 52.2616 45.5871L50.744 45.5871C50.3404 45.4421 50.0291 45.1336 49.9852 44.6266L50.0252 44.6266C50.0385 44.547 50.0518 44.4669 50.0652 44.387L50.105 44.387L50.105 44.2666C50.1317 44.2536 50.1583 44.24 50.185 44.2267L50.185 44.1468C50.5043 43.8401 50.8239 43.5333 51.1434 43.2269C52.0751 42.2801 53.0071 41.3329 53.9388 40.3863L58.2119 40.3863C58.5312 40.0533 58.8508 39.7196 59.1703 39.3865C59.2369 39.333 59.3034 39.2798 59.37 39.2262C59.6477 38.8416 59.9987 38.5566 60.3283 38.2264C60.7676 37.7727 61.207 37.3195 61.6462 36.8657C61.912 36.6736 62.1368 36.4545 62.3651 36.2259C63.0439 35.5326 63.7229 34.8392 64.4017 34.1459L64.5215 34.1459C64.5348 34.1192 64.5481 34.0923 64.5615 34.0657C64.628 34.0524 64.6945 34.0391 64.7611 34.0258L64.7611 33.9855C64.993 33.9114 65.4111 34.0721 65.5199 34.1459C65.5864 34.2254 65.653 34.3056 65.7196 34.3857C65.7462 34.3991 65.7729 34.4124 65.7995 34.4257C65.8127 34.4789 65.8261 34.5325 65.8393 34.5857L65.8793 34.5857L65.8793 34.6656L65.9192 34.6656L65.9192 34.7454L65.9592 34.7454L65.9592 35.2258L65.9192 35.2258C65.9059 35.2791 65.8926 35.3326 65.8793 35.3858L65.8393 35.3858L65.8393 35.5059C65.8127 35.519 65.7861 35.5326 65.7595 35.5456L65.7595 35.6257L65.7196 35.6257C65.6622 35.6967 65.629 35.7218 65.5998 35.8257L65.5199 35.8257C65.4917 35.9496 65.442 35.9959 65.3203 36.026L65.3203 36.1061L65.2403 36.1061L65.2403 36.186L65.1605 36.186L65.1605 36.2658L65.0806 36.2658L65.0806 36.3457L65.0008 36.3457C64.9719 36.4563 64.9896 36.4354 64.881 36.4658L64.881 36.546L64.8011 36.546L64.8011 36.6261L64.7213 36.6261L64.7213 36.7057L64.6413 36.7057L64.6413 36.7859L64.5615 36.7859L64.5615 36.8657L64.4816 36.8657C64.4527 36.9763 64.4704 36.9555 64.3618 36.9861L64.3618 37.066L64.2819 37.066L64.2819 37.1459L64.2021 37.1459L64.2021 37.226L64.1221 37.226L64.1221 37.3062L64.0423 37.3062L64.0423 37.386L63.9624 37.386C63.9336 37.4966 63.9513 37.4755 63.8426 37.5059L63.8426 37.586L63.7628 37.586L63.7628 37.6659L63.6829 37.6659L63.6829 37.746L63.6031 37.746L63.6031 37.8262L63.5231 37.8262L63.5231 37.9061L63.4433 37.9061C63.4144 38.0166 63.4322 37.9955 63.3234 38.0259L63.3234 38.106L63.2436 38.106L63.2436 38.1859L63.1637 38.1859C63.1112 38.3838 62.747 38.6437 62.6047 38.7864L62.6047 38.826C62.1654 39.2531 61.7261 39.6797 61.2868 40.1065C61.1493 40.2443 60.9218 40.5741 60.7277 40.6263L60.7277 40.7064L60.6478 40.7064L60.6478 40.7863L60.568 40.7863L60.568 40.8664L60.4881 40.8664C60.4593 40.977 60.477 40.9561 60.3683 40.9868L60.3683 41.0664L60.2885 41.0664L60.2885 41.1465L60.2086 41.1465L60.2086 41.2264L60.1287 41.2264L60.1287 41.3066L60.0488 41.3066L60.0488 41.3867C59.9385 41.4157 59.9594 41.3977 59.929 41.5065L59.8491 41.5065L59.8491 41.5864L59.7693 41.5864L59.7693 41.6666L59.6894 41.6666L59.6894 41.7467L59.6096 41.7467C59.5501 42.0812 59.5577 42.511 59.5649 42.9205C59.5673 43.0527 59.5696 43.1827 59.5696 43.3068L59.5696 46.1071C59.4726 46.1635 59.4392 46.257 59.37 46.3068C59.0296 46.5533 58.7826 46.8557 58.4914 47.1474C57.8125 47.8139 57.1335 48.4806 56.4547 49.1473C56.2684 49.347 56.0819 49.5476 55.8957 49.7472L55.8158 49.7472C55.8024 49.7742 55.7891 49.8008 55.7758 49.8274L55.696 49.8274C55.6826 49.854 55.6693 49.8806 55.656 49.9075C55.5883 49.9492 55.2743 50.0314 55.1368 49.9874L55.1368 49.9475L55.017 49.9475L55.017 49.9075L54.9372 49.9075C54.9239 49.8806 54.9105 49.854 54.8972 49.8274L54.7775 49.8274L54.7775 49.7874C54.6976 49.7206 54.6177 49.6543 54.5378 49.5872L54.5378 49.5073L54.4979 49.5073L54.4979 49.4272L54.458 49.4272L54.458 49.3074L54.418 49.3074L54.418 48.6273C54.384 48.5046 54.3913 48.3394 54.3986 48.173C54.406 48.0045 54.4134 47.8348 54.3781 47.7071L54.3381 47.7071L54.3381 45.667ZM61.6862 43.9067C61.806 43.9466 61.9257 43.9868 62.0456 44.0267L62.0456 44.0667C62.1254 44.08 62.2054 44.0933 62.2852 44.1069L62.2852 44.1468L62.3651 44.1468L62.3651 44.1865C62.4449 44.2001 62.5248 44.2131 62.6047 44.2267L62.6047 44.2666L62.7244 44.2666L62.7244 44.3069C62.8176 44.3199 62.9108 44.3335 63.004 44.3465L63.004 44.387C63.0971 44.4 63.1904 44.4137 63.2836 44.4267L63.2836 44.4669C63.8027 44.5601 64.322 44.6535 64.841 44.747L65.3602 44.747L65.3602 44.7869C65.5673 44.8448 66.4828 44.7904 66.638 44.747L67.1572 44.747L67.1572 44.7068L67.4767 44.7068L67.4767 44.6672L67.7562 44.6672L67.7562 44.6266L67.9559 44.6266L67.9559 44.587L68.1956 44.587L68.1956 44.547L68.3553 44.547L68.3553 44.5068C68.4751 44.4935 68.5949 44.4799 68.7147 44.4669C69.1939 44.3069 69.6732 44.1468 70.1523 43.9868L70.1523 43.9466C70.2056 43.9333 70.2589 43.9202 70.312 43.9067L70.312 43.867L70.392 43.867L70.392 43.8265L70.5118 43.8265L70.5118 43.7868C70.5916 43.7602 70.6715 43.7336 70.7513 43.7067L70.7513 43.6668L70.8312 43.6668L70.8312 43.6268L70.9111 43.6268L70.9111 43.5869C70.991 43.56 71.0708 43.5333 71.1507 43.5067C71.164 43.4801 71.1773 43.4535 71.1907 43.4266C71.2705 43.4 71.3504 43.3733 71.4302 43.3467C71.4436 43.3201 71.4568 43.2935 71.4702 43.2668C71.5234 43.2535 71.5767 43.2402 71.63 43.2269C71.6432 43.2003 71.6566 43.1734 71.6699 43.1467C71.7231 43.1334 71.7764 43.1201 71.8297 43.1068L71.8297 43.0669C71.8695 43.0533 71.9095 43.04 71.9494 43.0266C71.9627 43.0003 71.976 42.9737 71.9894 42.9471L72.0692 42.9471C72.0958 42.9066 72.1224 42.8669 72.149 42.8267L72.229 42.8267C72.2423 42.8001 72.2556 42.7731 72.2689 42.7465L72.3487 42.7465C72.3753 42.7069 72.402 42.6667 72.4286 42.6267L72.5085 42.6267C72.5351 42.5868 72.5618 42.5466 72.5884 42.5066L72.6682 42.5066C72.7082 42.4534 72.7481 42.4002 72.788 42.3466L72.8679 42.3466C72.9345 42.2667 73.001 42.1866 73.0676 42.1064L73.1474 42.1064C73.2406 41.9996 73.3338 41.8932 73.4269 41.7867C73.6533 41.5734 73.8796 41.3598 74.1059 41.1465L74.1059 41.0664C74.1857 40.9998 74.2656 40.9333 74.3455 40.8664L74.3455 40.7863C74.3987 40.7466 74.452 40.7064 74.5053 40.6665L74.5053 40.5863C74.5451 40.5597 74.5851 40.5328 74.6251 40.5061L74.6251 40.4263C74.665 40.3994 74.7049 40.3727 74.7449 40.3461L74.7449 40.2663C74.7715 40.2529 74.798 40.2396 74.8248 40.2263L74.8248 40.1462C74.8646 40.1195 74.9046 40.0929 74.9445 40.0663L74.9445 39.9861C74.9711 39.9731 74.9977 39.9595 75.0244 39.9465L75.0244 39.8663C75.051 39.8527 75.0777 39.8397 75.1043 39.8261C75.1175 39.7731 75.1309 39.7196 75.1442 39.6666C75.1709 39.653 75.1975 39.6397 75.2241 39.6261C75.2374 39.5729 75.2507 39.5196 75.264 39.4661C75.2906 39.4531 75.3172 39.4395 75.3438 39.4265C75.3704 39.3463 75.3971 39.2664 75.4238 39.1863C75.4504 39.173 75.477 39.1597 75.5036 39.1464L75.5036 39.0662L75.5435 39.0662L75.5435 38.9863L75.5835 38.9863L75.5835 38.9062L75.6234 38.9062L75.6234 38.826L75.6633 38.826L75.6633 38.7461L75.7033 38.7461C75.7299 38.666 75.7565 38.5864 75.7831 38.5062L75.8231 38.5062L75.8231 38.3862L75.863 38.3862L75.863 38.306L75.903 38.306L75.903 38.2264L75.9428 38.2264L75.9428 38.1462L75.9828 38.1462L75.9828 38.0259L76.0228 38.0259L76.0228 37.946L76.0627 37.946C76.076 37.8661 76.0893 37.7863 76.1026 37.7064L76.1425 37.7064L76.1425 37.6262L76.1825 37.6262C76.3157 37.1459 76.4488 36.6661 76.5818 36.186C76.6085 35.9458 76.6351 35.7059 76.6617 35.4657L76.7017 35.4657L76.7017 35.1457L76.7416 35.1457L76.7416 34.6257L76.7815 34.6257C76.8393 34.4184 76.7851 33.5008 76.7416 33.3457L76.7416 32.8257L76.7017 32.8257L76.7017 32.5053L76.6617 32.5053L76.6617 32.2255L76.6218 32.2255L76.6218 32.0256L76.5818 32.0256L76.5818 31.7854L76.5419 31.7854L76.5419 31.6254L76.502 31.6254L76.502 31.4254L76.462 31.4254L76.462 31.2654L76.4221 31.2654C76.4088 31.1719 76.3954 31.0784 76.3822 30.9852L76.3422 30.9852L76.3422 30.8654L76.3023 30.8654L76.3023 30.7054L76.2623 30.7054L76.2623 30.5856L76.2225 30.5856L76.2225 30.4652L76.1825 30.4652L76.1825 30.3454L76.1425 30.3454L76.1425 30.2653L76.1026 30.2653C76.0893 30.1854 76.076 30.1052 76.0627 30.0251L76.0228 30.0251L76.0228 29.9452L75.9828 29.9452L75.9828 29.8251L75.9428 29.8251C75.9296 29.7716 75.9162 29.7183 75.903 29.6651L75.863 29.6651L75.863 29.5849L75.8231 29.5849L75.8231 29.4651L75.7831 29.4651C75.7565 29.385 75.7299 29.3051 75.7033 29.2249L75.6633 29.2249L75.6633 29.1451L75.6234 29.1451L75.6234 29.0649L75.5835 29.0649C75.5569 28.9851 75.5302 28.9052 75.5036 28.825C75.477 28.8117 75.4504 28.7984 75.4238 28.7851C75.3971 28.7049 75.3704 28.6254 75.3438 28.5452C75.3172 28.5316 75.2906 28.5186 75.264 28.505C75.2507 28.4514 75.2374 28.3982 75.2241 28.3449C75.1975 28.3316 75.1709 28.318 75.1442 28.305C75.1309 28.2518 75.1175 28.1982 75.1043 28.145C75.0777 28.1319 75.051 28.1184 75.0244 28.1053L75.0244 28.0249L74.9845 28.0249C74.9711 27.9849 74.9578 27.945 74.9445 27.9048C74.9179 27.8915 74.8912 27.8782 74.8646 27.8648L74.8646 27.7847C74.8248 27.7581 74.7848 27.7314 74.7449 27.7048L74.7449 27.6247C74.7049 27.598 74.665 27.5714 74.6251 27.5448L74.6251 27.4646C74.5851 27.4383 74.5451 27.4117 74.5053 27.3848L74.5053 27.3049C74.452 27.2647 74.3987 27.2247 74.3455 27.1848L74.3455 27.1047C74.2656 27.0384 74.1857 26.9715 74.1059 26.905L74.1059 26.8248C73.8796 26.6115 73.6533 26.3983 73.4269 26.1847C73.3338 26.0779 73.2406 25.9711 73.1474 25.8649L73.0676 25.8649C73.001 25.7848 72.9345 25.7046 72.8679 25.6248L72.788 25.6248C72.7481 25.5712 72.7082 25.518 72.6682 25.4647L72.5884 25.4647C72.5618 25.4242 72.5351 25.3846 72.5085 25.3446L72.4286 25.3446C72.402 25.3044 72.3753 25.2645 72.3487 25.2246L72.2689 25.2246C72.2423 25.1846 72.2156 25.1444 72.189 25.1047L72.1092 25.1047C72.0958 25.0781 72.0826 25.0512 72.0692 25.0246L71.9894 25.0246C71.976 24.998 71.9627 24.9713 71.9494 24.9447C71.9095 24.9314 71.8695 24.9178 71.8297 24.9045L71.8297 24.8646C71.7764 24.8512 71.7231 24.8379 71.6699 24.8246C71.6566 24.798 71.6432 24.7711 71.63 24.7445C71.5767 24.7311 71.5234 24.7178 71.4702 24.7045C71.4568 24.6782 71.4436 24.6513 71.4302 24.6246C71.3504 24.598 71.2705 24.5714 71.1907 24.5448C71.1773 24.5179 71.164 24.4913 71.1507 24.4646L71.0708 24.4646L71.0708 24.4247L70.991 24.4247L70.991 24.3845L70.9111 24.3845L70.9111 24.3445L70.8312 24.3445L70.8312 24.3046L70.7513 24.3046L70.7513 24.2647L70.6715 24.2647L70.6715 24.2244C70.5916 24.1978 70.5118 24.1712 70.4318 24.1446L70.4318 24.1046C70.3654 24.091 70.2987 24.078 70.2323 24.0644L70.2323 24.0245L70.1523 24.0245L70.1523 23.9843L70.0325 23.9843L70.0325 23.9443L69.9526 23.9443L69.9526 23.9044C69.8728 23.8911 69.7929 23.8781 69.7131 23.8644L69.7131 23.8245L69.6331 23.8245L69.6331 23.7843C69.5134 23.7577 69.3936 23.731 69.2738 23.7041L69.2738 23.6645L69.1141 23.6645L69.1141 23.6243L68.9942 23.6243L68.9942 23.5843C68.9011 23.5707 68.8078 23.5577 68.7147 23.5441L68.7147 23.5045L68.5549 23.5045L68.5549 23.4645C68.4351 23.4509 68.3154 23.4379 68.1956 23.4243L68.1956 23.3847L67.9559 23.3847L67.9559 23.3444L67.7562 23.3444L67.7562 23.3045L67.4767 23.3045L67.4767 23.2643C67.1972 23.2512 66.9175 23.2377 66.638 23.2246L66.638 23.1841C66.4308 23.1265 65.5154 23.1807 65.3602 23.2246C65.0807 23.2377 64.8011 23.2512 64.5215 23.2643L64.5215 23.3045L64.242 23.3045L64.242 23.3444L64.0423 23.3444L64.0423 23.3847L63.8027 23.3847L63.8027 23.4243L63.6429 23.4243L63.6429 23.4645C63.5231 23.4778 63.4034 23.4909 63.2836 23.5045L63.2836 23.5441L63.1637 23.5441L63.1637 23.5843L63.004 23.5843L63.004 23.6243L62.8842 23.6243L62.8842 23.6645L62.7244 23.6645L62.7244 23.7041L62.6047 23.7041L62.6047 23.7447L62.4849 23.7447L62.4849 23.7843L62.3651 23.7843L62.3651 23.8245L62.2852 23.8245L62.2852 23.8644C62.2054 23.8781 62.1254 23.8911 62.0456 23.9044L62.0456 23.9443L61.9657 23.9443L61.9657 23.9843L61.8459 23.9843L61.8459 24.0245C61.7927 24.0378 61.7394 24.0511 61.6862 24.0644L61.6862 24.1046L61.6063 24.1046L61.6063 24.1446L61.4865 24.1446L61.4865 24.1848C61.4066 24.2114 61.3268 24.238 61.2469 24.2647L61.2469 24.3046L61.167 24.3046L61.167 24.3445L61.0872 24.3445L61.0872 24.3845C61.0073 24.4114 60.9274 24.438 60.8475 24.4646C60.8343 24.4913 60.8209 24.5179 60.8076 24.5448L60.568 24.6246C60.5546 24.6513 60.5414 24.6782 60.528 24.7045C60.4748 24.7178 60.4215 24.7311 60.3683 24.7445C60.355 24.7711 60.3417 24.798 60.3283 24.8246C60.2751 24.8379 60.2219 24.8512 60.1686 24.8646C60.1553 24.8912 60.142 24.9178 60.1287 24.9447L60.0488 24.9447L60.0488 24.9846C60.0089 24.998 59.969 25.0113 59.929 25.0246C59.9157 25.0512 59.9024 25.0781 59.8891 25.1047L59.8093 25.1047C59.7959 25.1314 59.7826 25.158 59.7693 25.1846C59.7293 25.1979 59.6894 25.2115 59.6495 25.2246C59.6229 25.2645 59.5962 25.3044 59.5696 25.3446L59.4898 25.3446C59.4632 25.3846 59.4365 25.4242 59.4098 25.4647L59.33 25.4647C59.2901 25.518 59.2501 25.5712 59.2103 25.6248L59.1303 25.6248C59.0638 25.7046 58.9972 25.7848 58.9306 25.8649L58.8508 25.8649C58.7177 26.0114 58.5845 26.1581 58.4514 26.3051C58.2651 26.4781 58.0787 26.6515 57.8923 26.8248L57.8923 26.905C57.8125 26.9715 57.7326 27.0384 57.6527 27.1047L57.6527 27.1848C57.5995 27.2247 57.5463 27.2647 57.493 27.3049L57.493 27.3848C57.4531 27.4117 57.4131 27.4383 57.3732 27.4646L57.3732 27.5448C57.3332 27.5714 57.2934 27.598 57.2534 27.6247C57.2401 27.6649 57.2268 27.7048 57.2134 27.745C57.1868 27.7581 57.1602 27.7717 57.1336 27.7847L57.1336 27.8648C57.107 27.8782 57.0803 27.8915 57.0537 27.9048C57.0404 27.945 57.0271 27.9849 57.0137 28.0249L56.9739 28.0249L56.9739 28.1053C56.9473 28.1184 56.9206 28.1319 56.894 28.145C56.8807 28.1982 56.8673 28.2518 56.854 28.305C56.8274 28.318 56.8008 28.3316 56.7742 28.3449C56.7608 28.3982 56.7476 28.4514 56.7342 28.505C56.7076 28.5186 56.681 28.5316 56.6544 28.5452C56.6278 28.6254 56.6011 28.7049 56.5745 28.7851C56.5479 28.7984 56.5213 28.8117 56.4947 28.825L56.4947 28.9052L56.4547 28.9052L56.4547 28.9851L56.4147 28.9851L56.4147 29.0649L56.3749 29.0649L56.3749 29.1451L56.3349 29.1451L56.3349 29.2249L56.295 29.2249L56.295 29.3051L56.255 29.3051C56.2284 29.385 56.2018 29.4651 56.1752 29.5453L56.1352 29.5453L56.1352 29.6651L56.0953 29.6651C56.082 29.7183 56.0686 29.7716 56.0554 29.8251L56.0154 29.8251C55.8557 30.3049 55.696 30.7853 55.5362 31.2654C55.5229 31.3854 55.5096 31.5055 55.4963 31.6254L55.4563 31.6254L55.4563 31.7854L55.4164 31.7854L55.4164 32.0256L55.3765 32.0256L55.3765 32.2255L55.3365 32.2255C55.3099 32.4654 55.2833 32.7053 55.2567 32.9455L55.2567 33.3457L55.2167 33.3457C55.1589 33.5532 55.2131 34.4703 55.2567 34.6257C55.27 34.9058 55.2833 35.1859 55.2966 35.4657L55.3365 35.4657L55.3365 35.7461L55.3765 35.7461L55.3765 35.9458L55.4164 35.9458L55.4164 36.186L55.4563 36.186C55.4696 36.3058 55.483 36.4259 55.4963 36.546L55.5362 36.546L55.5362 36.7057L55.5762 36.7057C55.5894 36.7995 55.6028 36.8927 55.616 36.9861L55.656 36.9861L55.656 37.1059L55.696 37.1059L55.696 37.2659L55.7359 37.2659L55.7359 37.386L55.7758 37.386L55.7758 37.5059L55.8158 37.5059L55.8158 37.6262L55.8557 37.6262L55.8557 37.7064L55.8957 37.7064C55.9089 37.7863 55.9222 37.8661 55.9355 37.946L55.9755 37.946C56.0154 38.0664 56.0554 38.1859 56.0953 38.306C55.9176 38.3052 55.728 38.3004 55.5337 38.2955C54.8204 38.2776 54.0415 38.258 53.5394 38.4261C53.3664 38.453 53.1933 38.4796 53.0203 38.5062L53.0203 38.5459C52.9804 38.5595 52.9404 38.5725 52.9006 38.5864L52.9006 38.6263C52.8482 38.6392 52.8422 38.6241 52.8357 38.6079C52.8326 38.6 52.8294 38.5918 52.8206 38.5864C52.6834 38.462 52.696 38.1784 52.6209 37.9862C52.4431 37.5307 52.3685 36.9595 52.2216 36.4658C52.2083 36.2925 52.195 36.1191 52.1817 35.9458L52.1417 35.9458L52.1417 35.666L52.1018 35.666L52.1018 35.2658L52.0619 35.2658L52.0619 34.7454C51.9771 34.4373 51.975 33.5335 52.0619 33.2256L52.0619 32.7053L52.1018 32.7053L52.1018 32.3057L52.1417 32.3057L52.1417 32.0256L52.1817 32.0256L52.1817 31.7454C52.2372 31.557 52.2848 31.2876 52.3414 31.1053L52.3414 30.9051L52.3814 30.9051L52.3814 30.7451L52.4213 30.7451L52.4213 30.5856L52.4612 30.5856L52.4612 30.4253L52.5011 30.4253L52.5011 30.2653L52.5411 30.2653L52.5411 30.1052L52.5811 30.1052L52.5811 29.9851L52.6209 29.9851L52.6209 29.865L52.6609 29.865L52.6609 29.745L52.7009 29.745C52.7141 29.6518 52.7275 29.5583 52.7408 29.4651L52.7807 29.4651L52.7807 29.385L52.8206 29.385C52.8473 29.2652 52.8738 29.1451 52.9006 29.025L52.9404 29.025L52.9404 28.9448L52.9804 28.9448L52.9804 28.825L53.0203 28.825C53.0336 28.7585 53.0469 28.6916 53.0603 28.6254L53.1002 28.6254L53.1002 28.5452L53.1401 28.5452L53.1401 28.4248L53.1801 28.4248C53.2067 28.3449 53.2333 28.2648 53.2599 28.1852L53.2999 28.1852L53.2999 28.1053L53.3398 28.1053L53.3398 27.9849L53.3797 27.9849C53.4064 27.9048 53.433 27.8252 53.4596 27.745L53.4995 27.745L53.4995 27.6649L53.5394 27.6649C53.5661 27.585 53.5927 27.5049 53.6193 27.425C53.6459 27.4117 53.6726 27.3981 53.6992 27.3848L53.6992 27.3049L53.7391 27.3049L53.7391 27.2247L53.7791 27.2247L53.7791 27.1449L53.819 27.1449L53.819 27.065C53.8456 27.0517 53.8723 27.0384 53.8988 27.0251C53.9254 26.9449 53.9521 26.8647 53.9788 26.7849C54.0054 26.7716 54.032 26.7582 54.0586 26.7446L54.0586 26.6651C54.0852 26.6515 54.1119 26.6385 54.1385 26.6249C54.1518 26.5713 54.1651 26.5181 54.1784 26.4648C54.2051 26.4515 54.2317 26.4382 54.2583 26.4249L54.2583 26.3447C54.2849 26.3314 54.3115 26.3181 54.3381 26.3051L54.3381 26.2249C54.3648 26.2113 54.3914 26.1983 54.418 26.1847L54.418 26.1048L54.458 26.1048C54.4712 26.0649 54.4846 26.0247 54.4979 25.9848C54.5246 25.9711 54.5512 25.9578 54.5778 25.9445L54.5778 25.8649C54.6177 25.8377 54.6576 25.8114 54.6976 25.7848L54.6976 25.7046C54.7375 25.678 54.7775 25.6514 54.8174 25.6248L54.8174 25.5446C54.8573 25.518 54.8972 25.4913 54.9372 25.4647L54.9372 25.3846C54.9904 25.3446 55.0436 25.3044 55.097 25.2648L55.097 25.1846C55.1502 25.1444 55.2034 25.1047 55.2567 25.0648C55.5742 24.6226 55.9201 24.3199 56.295 23.9443C56.4281 23.7979 56.5612 23.6509 56.6943 23.5045L56.7742 23.5045C56.8408 23.4243 56.9073 23.3444 56.9739 23.2643L57.0537 23.2643C57.1069 23.1977 57.1602 23.1309 57.2134 23.0643L57.2934 23.0643C57.3332 23.0111 57.3732 22.9578 57.4131 22.9043L57.493 22.9043C57.5197 22.8646 57.5463 22.8244 57.5729 22.7845L57.6527 22.7845C57.6794 22.7443 57.706 22.7046 57.7326 22.6641L57.8125 22.6641C57.8392 22.6245 57.8658 22.5845 57.8923 22.5443L57.9722 22.5443C57.9855 22.5177 57.9989 22.491 58.0121 22.4644L58.1319 22.4245L58.1319 22.3843L58.2119 22.3843C58.2251 22.3576 58.2385 22.331 58.2518 22.3047L58.3316 22.3047C58.345 22.2778 58.3582 22.2512 58.3716 22.2245L58.4514 22.2245C58.4648 22.1979 58.4781 22.1713 58.4914 22.1444C58.5446 22.1308 58.5979 22.1178 58.6511 22.1042C58.6645 22.0775 58.6777 22.0509 58.6911 22.024C58.731 22.0107 58.7709 21.9974 58.8109 21.984L58.8109 21.9441L58.8908 21.9441L58.8908 21.9042L58.9706 21.9042L58.9706 21.864L59.0505 21.864C59.0638 21.8376 59.0771 21.811 59.0904 21.7844L59.1703 21.7844L59.1703 21.7439L59.2501 21.7439L59.2501 21.7042L59.33 21.7042L59.33 21.6643L59.4098 21.6643C59.4232 21.6374 59.4365 21.6108 59.4498 21.5841C59.5296 21.5575 59.6096 21.5309 59.6894 21.504L59.6894 21.4641L59.7693 21.4641L59.7693 21.4244C59.8491 21.3978 59.929 21.3709 60.0089 21.3442L60.0089 21.304L60.1287 21.304L60.1287 21.2644L60.2086 21.2644L60.2086 21.2238C60.2885 21.1972 60.3683 21.1706 60.4482 21.144L60.4482 21.1041L60.568 21.1041L60.568 21.0644L60.6478 21.0644L60.6478 21.0242L60.7677 21.0242L60.7677 20.9842L60.8475 20.9842L60.8475 20.944L60.9673 20.944L60.9673 20.9044L61.0472 20.9044L61.0472 20.8641C61.167 20.8372 61.2868 20.8106 61.4066 20.784L61.4066 20.7444L61.4865 20.7444L61.4865 20.7038C61.5797 20.6908 61.6728 20.6772 61.766 20.6642L61.766 20.6243L61.8859 20.6243L61.8859 20.584L62.0057 20.584L62.0057 20.5441L62.1254 20.5441L62.1254 20.5042L62.2852 20.5042L62.2852 20.4642L62.4449 20.4642L62.4449 20.424L62.6047 20.424L62.6047 20.3841L62.7644 20.3841L62.7644 20.3441L62.9241 20.3441L62.9241 20.3039L63.1238 20.3039L63.1238 20.2643L63.3234 20.2643L63.3234 20.224L63.5231 20.224L63.5231 20.1841L63.7628 20.1841L63.7628 20.1439C63.9491 20.1308 64.1355 20.1173 64.3219 20.1042L64.3219 20.064C64.8543 20.0371 65.3868 20.0105 65.9192 19.9839C66.3851 19.9972 66.8511 20.0105 67.3169 20.0238L67.3169 20.064L67.6764 20.064L67.6764 20.1042L67.9959 20.1042C68.6215 20.2376 69.2472 20.3708 69.8728 20.5042C70.8238 20.8462 71.7964 21.1651 72.5884 21.6643L72.6682 21.6643L72.6682 21.7042L72.7481 21.7042L72.7481 21.7439L72.8279 21.7439L72.8279 21.7844L72.9079 21.7844C72.9211 21.811 72.9345 21.8376 72.9477 21.864C73.0276 21.8906 73.1076 21.9175 73.1874 21.9441L73.1874 21.984C73.2274 21.9974 73.2672 22.0107 73.3072 22.024C73.3205 22.0509 73.3338 22.0775 73.3471 22.1042C73.4003 22.1178 73.4537 22.1308 73.5069 22.1444L73.5069 22.1843C73.5468 22.1979 73.5867 22.2109 73.6267 22.2245C73.64 22.2512 73.6533 22.2778 73.6666 22.3047L73.7465 22.3047C73.7598 22.331 73.7731 22.3576 73.7864 22.3843L73.8663 22.3843L73.8663 22.4245L73.9861 22.4644C73.9994 22.491 74.0127 22.5177 74.026 22.5443L74.1059 22.5443C74.1325 22.5845 74.1591 22.6245 74.1858 22.6641L74.2656 22.6641C74.2922 22.7046 74.3188 22.7443 74.3455 22.7845L74.4254 22.7845C74.452 22.8244 74.4786 22.8646 74.5053 22.9043L74.5851 22.9043C74.6251 22.9578 74.665 23.0111 74.7049 23.0643L74.7848 23.0643C74.8114 23.1042 74.838 23.1445 74.8646 23.1841L74.9046 23.1841C74.9179 23.211 74.9312 23.2377 74.9445 23.2643L75.0244 23.2643C75.0909 23.3444 75.1575 23.4243 75.2241 23.5045L75.3039 23.5045C75.4636 23.6775 75.6235 23.8509 75.7831 24.0245C76.0094 24.238 76.2357 24.4513 76.462 24.6646L76.462 24.7445C76.5419 24.8113 76.6218 24.8779 76.7017 24.9447L76.7017 25.0246C76.7681 25.0781 76.8348 25.1314 76.9013 25.1846L76.9013 25.2648C76.9546 25.3044 77.0078 25.3446 77.061 25.3846L77.061 25.4647C77.101 25.4913 77.141 25.518 77.1809 25.5446L77.1809 25.6248C77.2208 25.6514 77.2607 25.678 77.3007 25.7046L77.3007 25.7848C77.3406 25.8114 77.3805 25.8377 77.4205 25.8649L77.4205 25.9445C77.4471 25.9578 77.4737 25.9711 77.5004 25.9848C77.5136 26.0247 77.527 26.0649 77.5403 26.1048L77.5802 26.1048L77.5802 26.1847C77.6068 26.1983 77.6334 26.2113 77.6601 26.2249L77.6601 26.3051C77.6867 26.3181 77.7133 26.3314 77.74 26.3447L77.74 26.4249C77.7666 26.4382 77.7932 26.4515 77.8199 26.4648C77.8331 26.5181 77.8465 26.5713 77.8597 26.6249C77.8863 26.6385 77.913 26.6515 77.9396 26.6651C77.9529 26.7047 77.9662 26.7446 77.9796 26.7849L78.0195 26.7849C78.0461 26.8647 78.0728 26.9449 78.0994 27.0251C78.126 27.0384 78.1526 27.0517 78.1792 27.065L78.1792 27.1449L78.2192 27.1449L78.2192 27.2247L78.2591 27.2247L78.2591 27.3049L78.2991 27.3049L78.2991 27.3848C78.7957 28.1777 79.119 29.152 79.4571 30.1052C79.4705 30.212 79.4837 30.3188 79.4971 30.4253L79.537 30.4253L79.537 30.5856L79.5769 30.5856L79.5769 30.7451L79.6169 30.7451L79.6169 30.9051L79.6568 30.9051L79.6568 31.1053L79.6968 31.1053C79.7101 31.2387 79.7234 31.3722 79.7367 31.5055L79.7766 31.5055L79.7766 31.7454L79.8166 31.7454L79.8166 32.0256L79.8565 32.0256C79.8698 32.2521 79.8831 32.4787 79.8964 32.7053L79.9363 32.7053L79.9363 33.2256C80.0212 33.5341 80.0232 34.4378 79.9363 34.7454L79.9363 35.2658L79.8964 35.2658C79.8831 35.4924 79.8698 35.7195 79.8565 35.9458L79.8166 35.9458L79.8166 36.2259C79.7611 36.414 79.7135 36.6837 79.6568 36.8657L79.6568 37.066L79.6169 37.066L79.6169 37.226L79.5769 37.226L79.5769 37.386L79.537 37.386L79.537 37.5464L79.4971 37.5464L79.4971 37.7064L79.4571 37.7064L79.4571 37.8661L79.4172 37.8661L79.4172 37.9862L79.3773 37.9862L79.3773 38.106L79.3373 38.106L79.3373 38.2264L79.2974 38.2264L79.2974 38.3862L79.2574 38.3862L79.2574 38.5062L79.2176 38.5062L79.2176 38.5864L79.1776 38.5864C79.151 38.7062 79.1244 38.826 79.0977 38.9464L79.0578 38.9464L79.0578 39.0265L79.0179 39.0265L79.0179 39.1464L78.9779 39.1464L78.9779 39.2262L78.938 39.2262L78.938 39.3463L78.8981 39.3463L78.8981 39.4265L78.8581 39.4265L78.8581 39.5463L78.8182 39.5463C78.7915 39.6261 78.765 39.7063 78.7384 39.7865L78.6984 39.7865L78.6984 39.8663L78.6584 39.8663L78.6584 39.9861L78.6185 39.9861C78.5919 40.0663 78.5653 40.1462 78.5387 40.2263L78.4987 40.2263L78.4987 40.3065L78.4587 40.3065C78.4321 40.3863 78.4055 40.4665 78.3789 40.5464C78.3523 40.5597 78.3257 40.5733 78.2991 40.5863L78.2991 40.6665L78.2591 40.6665L78.2591 40.7466L78.2192 40.7466L78.2192 40.8265L78.1792 40.8265L78.1792 40.9067C78.1526 40.9197 78.126 40.9333 78.0994 40.9463C78.0728 41.0265 78.0461 41.1066 78.0195 41.1865L77.9796 41.1865C77.9662 41.2264 77.9529 41.2666 77.9396 41.3066C77.913 41.3199 77.8863 41.3332 77.8597 41.3465C77.8465 41.4 77.8331 41.453 77.8199 41.5065L77.7799 41.5065C77.7666 41.5465 77.7533 41.5864 77.74 41.6266C77.7133 41.6399 77.6867 41.6532 77.6601 41.6666L77.6601 41.7467L77.6202 41.7467C77.6068 41.7867 77.5936 41.8266 77.5802 41.8662C77.5536 41.8801 77.527 41.8932 77.5004 41.9067L77.5004 41.9866C77.4604 42.0135 77.4205 42.0401 77.3805 42.0668L77.3805 42.1467C77.3539 42.1599 77.3273 42.173 77.3007 42.1866L77.3007 42.2667C77.2607 42.2934 77.2208 42.32 77.1809 42.3466L77.1809 42.4268C77.141 42.4534 77.101 42.48 77.061 42.5066L77.061 42.5868C77.0078 42.6267 76.9546 42.6667 76.9013 42.7069L76.9013 42.7868C76.8614 42.8137 76.8214 42.8403 76.7815 42.8669L76.7815 42.9066C76.7549 42.9202 76.7283 42.9335 76.7017 42.9471L76.7017 43.0266C76.6218 43.0935 76.5419 43.16 76.462 43.2269L76.462 43.3068C76.2624 43.4934 76.0626 43.6801 75.863 43.867C75.6767 44.0667 75.4902 44.2666 75.3039 44.4669L75.2241 44.4669C75.1575 44.547 75.0909 44.6266 75.0244 44.7068L74.9445 44.7068C74.8912 44.7736 74.838 44.8402 74.7848 44.907L74.7049 44.907C74.665 44.9606 74.6251 45.0135 74.5851 45.0671L74.5053 45.0671C74.4786 45.107 74.452 45.1469 74.4254 45.1871L74.3455 45.1871C74.3188 45.2268 74.2922 45.267 74.2656 45.307L74.1858 45.307C74.1725 45.3336 74.1591 45.3602 74.1458 45.3868L74.0659 45.3868C74.0393 45.4268 74.0127 45.467 73.9861 45.5069L73.9062 45.5069C73.8929 45.5336 73.8796 45.5605 73.8663 45.5871L73.7864 45.5871C73.7731 45.6137 73.7598 45.6403 73.7465 45.667L73.6666 45.667C73.6533 45.6939 73.64 45.7205 73.6267 45.7468L73.5468 45.7468C73.5335 45.7734 73.5201 45.8001 73.5069 45.827C73.4537 45.8403 73.4003 45.8536 73.3471 45.8669C73.3338 45.8935 73.3205 45.9202 73.3072 45.9468C73.2672 45.9604 73.2274 45.9737 73.1874 45.987L73.1874 46.0269L73.1075 46.0269L73.1075 46.0669L73.0276 46.0669L73.0276 46.1071L72.9477 46.1071C72.9345 46.1337 72.9211 46.1604 72.9079 46.187L72.8279 46.187L72.8279 46.2269L72.7481 46.2269L72.7481 46.2671L72.6682 46.2671L72.6682 46.3068L72.5884 46.3068C72.575 46.3334 72.5618 46.3603 72.5484 46.3869L72.4685 46.3869L72.4685 46.4272C72.3887 46.4538 72.3088 46.4807 72.229 46.5073L72.229 46.547C72.1491 46.5739 72.0692 46.6005 71.9894 46.6274L71.9894 46.667L71.8695 46.667L71.8695 46.7073L71.7897 46.7073L71.7897 46.7472C71.7098 46.7738 71.63 46.8005 71.55 46.8271L71.55 46.8673L71.4302 46.8673L71.4302 46.9072L71.3504 46.9072L71.3504 46.9472L71.2306 46.9472L71.2306 46.9871L71.1507 46.9871L71.1507 47.0271L71.0309 47.0271L71.0309 47.0673L70.951 47.0673L70.951 47.1069C70.8312 47.1338 70.7114 47.1605 70.5916 47.1871L70.5916 47.2273L70.5118 47.2273L70.5118 47.2672C70.4186 47.2808 70.3254 47.2938 70.2323 47.3075L70.2323 47.3471L70.1124 47.3471L70.1124 47.3871L69.9926 47.3871L69.9926 47.4272L69.8728 47.4272L69.8728 47.4672C69.7663 47.4805 69.6598 47.4938 69.5533 47.5071L69.5533 47.5473L69.3936 47.5473L69.3936 47.5873L69.2338 47.5873L69.2338 47.6269L69.0741 47.6269L69.0741 47.6675L68.8744 47.6675L68.8744 47.7071C68.7414 47.7207 68.6081 47.7337 68.4751 47.7473L68.4751 47.7873L68.2355 47.7873L68.2355 47.8272L67.9559 47.8272L67.9559 47.8671L67.6764 47.8671L67.6764 47.907L67.3169 47.907L67.3169 47.9473L66.7579 47.9473C66.4501 48.0326 65.5477 48.0341 65.2403 47.9473L64.6813 47.9473L64.6813 47.907L64.3219 47.907L64.3219 47.8671L64.0423 47.8671L64.0423 47.8272L63.7628 47.8272L63.7628 47.7873C63.6163 47.7737 63.4699 47.7603 63.3234 47.7473L63.3234 47.7071C63.1904 47.6941 63.0573 47.6805 62.9241 47.6675L62.9241 47.6269C62.8176 47.6139 62.7112 47.6003 62.6047 47.5873L62.6047 47.5473L62.4449 47.5473L62.4449 47.5071L62.2852 47.5071L62.2852 47.4672L62.1254 47.4672L62.1254 47.4272L62.0057 47.4272L62.0057 47.3871L61.8859 47.3871L61.8859 47.3471L61.766 47.3471L61.766 47.3075L61.6063 47.3075L61.6063 47.2672L61.4865 47.2672L61.4865 47.2273C61.4199 47.2137 61.3533 47.2007 61.2868 47.1871L61.2868 47.1474C61.3291 47.1191 61.4703 46.9483 61.4865 46.9072L61.4865 46.7073L61.5264 46.7073L61.5264 46.547L61.5664 46.547L61.5664 46.3869L61.6063 46.3869L61.6063 46.2269L61.6462 46.2269L61.6462 46.0669L61.6862 46.0669L61.6862 43.9067ZM58.1319 36.8657C58.1719 36.9991 58.2119 37.1325 58.2518 37.2659L58.3716 37.2659C58.4248 37.1994 58.4781 37.1325 58.5313 37.066L58.5713 37.066L58.5713 36.9861C58.5979 36.9725 58.6245 36.9595 58.6511 36.9459C58.6777 36.9063 58.7043 36.8657 58.731 36.8261L58.8109 36.8261C58.8242 36.7995 58.8375 36.7728 58.8508 36.7459C58.9306 36.6791 59.0105 36.6125 59.0904 36.546L59.0904 36.4658C59.117 36.4525 59.1437 36.4392 59.1703 36.4259C59.1969 36.3859 59.2235 36.3457 59.2501 36.3058L59.33 36.3058C59.4498 36.1594 59.5696 36.0123 59.6894 35.8659L59.7293 35.8659C59.7427 35.8393 59.756 35.8124 59.7693 35.7858L59.8491 35.7858C59.9024 35.7195 59.9556 35.6524 60.0089 35.5861L60.0488 35.5861L60.0488 35.5059C60.2086 35.3725 60.3683 35.2391 60.528 35.1057C60.5414 35.0658 60.5546 35.0256 60.568 34.9856C60.6612 34.9193 60.7543 34.8522 60.8475 34.786C60.8474 34.6569 60.8363 34.519 60.825 34.379C60.8018 34.0909 60.7779 33.7938 60.8475 33.5457L60.8475 33.1854L60.8875 33.1854L60.8875 32.9857L60.9274 32.9857L60.9274 32.7852L60.9673 32.7852L60.9673 32.6252L61.0073 32.6252L61.0073 32.5053L61.0472 32.5053C61.0605 32.4122 61.0738 32.3187 61.0872 32.2255L61.127 32.2255C61.1404 32.159 61.1537 32.0921 61.167 32.0256L61.207 32.0256C61.2202 31.972 61.2336 31.9188 61.2469 31.8652L61.2868 31.8652L61.2868 31.7454L61.3268 31.7454C61.3401 31.6922 61.3533 31.6389 61.3667 31.5854L61.4066 31.5854L61.4066 31.5055C61.4333 31.4919 61.4599 31.4786 61.4865 31.465C61.4998 31.4121 61.5131 31.3588 61.5264 31.3053C61.553 31.292 61.5797 31.2787 61.6063 31.2654L61.6063 31.1852L61.6462 31.1852L61.6462 31.1053C61.6862 31.0784 61.7261 31.0518 61.766 31.0255L61.766 30.9453C61.7926 30.9317 61.8193 30.9187 61.8459 30.9051L61.8459 30.8252C61.8991 30.7853 61.9524 30.7451 62.0057 30.7054L62.0057 30.6252C62.0988 30.5451 62.192 30.4652 62.2852 30.3851C62.4049 30.2517 62.5248 30.1185 62.6446 29.9851L62.7244 29.9851C62.7644 29.9319 62.8044 29.8784 62.8442 29.8251L62.9241 29.8251C62.9375 29.7985 62.9507 29.7716 62.9641 29.745L63.0439 29.745C63.0705 29.7053 63.0972 29.6651 63.1238 29.6252L63.2037 29.6252L63.2037 29.5849L63.2836 29.5849C63.2969 29.5583 63.3102 29.5317 63.3234 29.5048C63.3767 29.4918 63.43 29.4781 63.4832 29.4651C63.4965 29.4385 63.5099 29.4119 63.5231 29.385C63.6429 29.345 63.7628 29.3051 63.8826 29.2652L63.8826 29.2249C63.9358 29.2116 63.9891 29.1983 64.0423 29.185L64.0423 29.1451C64.1221 29.1318 64.2021 29.1182 64.2819 29.1048L64.2819 29.0649L64.3618 29.0649L64.3618 29.025L64.5215 29.025L64.5215 28.9851L64.6413 28.9851L64.6413 28.9448L64.8011 28.9448L64.8011 28.9052L65.0008 28.9052L65.0008 28.8649L65.2005 28.8649L65.2005 28.825L65.5598 28.825C65.6988 28.7859 66.2423 28.7301 66.4384 28.7851L66.4384 28.825L66.7978 28.825L66.7978 28.8649L66.9975 28.8649L66.9975 28.9052L67.1972 28.9052C68.3806 29.2794 69.3421 29.7996 69.9926 30.7054C70.0458 30.7451 70.0991 30.7853 70.1523 30.8252L70.1523 30.9051L70.1923 30.9051C70.2056 30.9453 70.2189 30.9852 70.2323 31.0255C70.2721 31.0518 70.312 31.0784 70.352 31.1053C70.3653 31.1586 70.3786 31.2118 70.392 31.2654C70.4186 31.2787 70.4452 31.292 70.4718 31.3053C70.4852 31.3588 70.4984 31.4121 70.5118 31.465C70.5384 31.4786 70.565 31.4919 70.5916 31.5055C70.6316 31.6254 70.6715 31.7454 70.7115 31.8652L70.7513 31.8652C70.7647 31.9188 70.778 31.972 70.7913 32.0256L70.8312 32.0256L70.8312 32.1454L70.8712 32.1454L70.8712 32.2255L70.9111 32.2255C70.9244 32.3187 70.9378 32.4122 70.951 32.5053L70.991 32.5053L70.991 32.6252L71.0309 32.6252C71.0442 32.7456 71.0575 32.8653 71.0708 32.9857C71.2373 33.5254 71.2349 34.4457 71.0708 34.9856L71.0708 35.1859L71.0309 35.1859L71.0309 35.3459L70.991 35.3459L70.991 35.4657L70.951 35.4657C70.9378 35.5592 70.9244 35.6524 70.9111 35.7461C70.528 36.6467 70.0201 37.4474 69.2738 37.9862C69.2338 38.0395 69.1939 38.093 69.1539 38.1462L69.0741 38.1462C69.0608 38.1729 69.0475 38.1998 69.0341 38.2264L68.9543 38.2264C68.9277 38.2661 68.901 38.306 68.8744 38.3462C68.8212 38.3595 68.768 38.3728 68.7147 38.3862C68.7014 38.4128 68.6881 38.4394 68.6748 38.4663C68.5949 38.4929 68.515 38.5196 68.4351 38.5459C68.4218 38.5725 68.4085 38.5994 68.3952 38.6263L68.3154 38.6263L68.3154 38.666L68.2355 38.666L68.2355 38.7062L68.1157 38.7062L68.1157 38.7461C68.0624 38.7597 68.0091 38.7728 67.9559 38.7864L67.9559 38.826C67.8761 38.8396 67.7962 38.8529 67.7164 38.8665L67.7164 38.9062L67.6364 38.9062L67.6364 38.9464L67.4767 38.9464L67.4767 38.9863L67.3569 38.9863L67.3569 39.0265L67.1972 39.0265L67.1972 39.0662L66.9975 39.0662L66.9975 39.1061L66.7978 39.1061L66.7978 39.1464L66.4384 39.1464L66.4384 39.1863C66.3093 39.2233 65.6099 39.1912 65.5598 39.1464L65.1605 39.1464C65.0008 39.3197 64.841 39.4927 64.6813 39.6666L64.6014 39.6666C64.5349 39.7596 64.4682 39.8527 64.4017 39.9465C64.3352 39.9997 64.2686 40.0533 64.2021 40.1065C64.1887 40.1331 64.1755 40.1598 64.1621 40.1867C64.1221 40.1997 64.0823 40.2133 64.0423 40.2263L64.0423 40.3065C63.9757 40.3597 63.9092 40.4129 63.8426 40.4665C63.6962 40.6263 63.5498 40.7863 63.4034 40.9463C63.2436 41.1066 63.0839 41.2666 62.9241 41.4264C62.8412 41.5094 62.7459 41.5595 62.6846 41.6666L62.6446 41.6666C62.7434 41.7777 62.8968 41.7621 63.0439 41.8266L63.0439 41.8662L63.1238 41.8662L63.1238 41.9067L63.2436 41.9067L63.2436 41.9464L63.3634 41.9464L63.3634 41.9866L63.4832 41.9866L63.4832 42.0266C63.5764 42.0401 63.6696 42.0532 63.7628 42.0668L63.7628 42.1064L63.9225 42.1064L63.9225 42.1467C64.0423 42.1599 64.1621 42.173 64.2819 42.1866L64.2819 42.2262L64.4816 42.2262L64.4816 42.2667L64.7213 42.2667L64.7213 42.3064L65.0008 42.3064L65.0008 42.3466L65.44 42.3466L65.44 42.3863C65.6325 42.4407 66.4178 42.3857 66.5582 42.3466L66.9975 42.3466L66.9975 42.3064L67.277 42.3064L67.277 42.2667L67.5166 42.2667L67.5166 42.2262L67.7164 42.2262L67.7164 42.1866L67.916 42.1866L67.916 42.1467L68.0757 42.1467L68.0757 42.1064L68.2355 42.1064L68.2355 42.0668C68.3286 42.0532 68.4219 42.0401 68.5151 42.0266L68.5151 41.9866L68.6348 41.9866L68.6348 41.9464L68.7546 41.9464L68.7546 41.9067L68.8744 41.9067L68.8744 41.8662L68.9543 41.8662L68.9543 41.8266L69.0741 41.8266L69.0741 41.7867L69.1539 41.7867L69.1539 41.7467L69.2738 41.7467L69.2738 41.7065C69.327 41.6932 69.3802 41.6799 69.4335 41.6666L69.4335 41.6266L69.5134 41.6266L69.5134 41.5864C69.6331 41.5468 69.753 41.5065 69.8728 41.4666C69.886 41.44 69.8994 41.4134 69.9128 41.3867L69.9926 41.3867L69.9926 41.3465L70.2323 41.2666C70.2455 41.24 70.2589 41.2131 70.2721 41.1865C70.3254 41.1732 70.3786 41.1599 70.4318 41.1465L70.4318 41.1066C70.4718 41.093 70.5118 41.0797 70.5517 41.0664C70.565 41.0398 70.5783 41.0134 70.5916 40.9868L70.6715 40.9868L70.6715 40.9463C70.7115 40.9333 70.7513 40.9197 70.7913 40.9067C70.8046 40.88 70.8179 40.8534 70.8312 40.8265L70.9111 40.8265C70.9377 40.7863 70.9644 40.7466 70.991 40.7064L71.0708 40.7064C71.0974 40.6665 71.1241 40.6263 71.1507 40.5863L71.2306 40.5863C71.2839 40.5198 71.3371 40.4529 71.3903 40.3863L71.4702 40.3863C71.6166 40.2263 71.7631 40.0663 71.9095 39.9063C72.0692 39.7596 72.229 39.6128 72.3887 39.4661L72.3887 39.3865C72.4553 39.333 72.5218 39.2798 72.5884 39.2262L72.5884 39.1464C72.6283 39.1197 72.6682 39.0928 72.7082 39.0662L72.7082 38.9863C72.7481 38.9594 72.788 38.9328 72.8279 38.9062L72.8279 38.826C72.8546 38.813 72.8812 38.7994 72.9079 38.7864C72.9211 38.7461 72.9345 38.7062 72.9477 38.666L72.9877 38.666L72.9877 38.5864C73.0143 38.5725 73.041 38.5595 73.0676 38.5459C73.0809 38.5062 73.0942 38.4663 73.1075 38.4261L73.1474 38.4261C73.1608 38.3728 73.174 38.3193 73.1874 38.2661C73.214 38.2527 73.2406 38.2394 73.2672 38.2264L73.2672 38.1462L73.3072 38.1462L73.3072 38.0664L73.3471 38.0664L73.3471 37.9862L73.3871 37.9862L73.3871 37.9061C73.4137 37.8927 73.4403 37.8795 73.4669 37.8661L73.4669 37.7863L73.5069 37.7863C73.5201 37.733 73.5335 37.6798 73.5468 37.6262L73.5867 37.6262L73.5867 37.5059L73.6267 37.5059L73.6267 37.4263L73.6666 37.4263C73.6799 37.3727 73.6932 37.3195 73.7066 37.2659L73.7465 37.2659L73.7465 37.1459L73.7864 37.1459L73.7864 37.066L73.8263 37.066L73.8263 36.9459L73.8663 36.9459L73.8663 36.8657L73.9062 36.8657L73.9062 36.7459L73.9461 36.7459L73.9461 36.6261L73.9861 36.6261L73.9861 36.5061L74.026 36.5061L74.026 36.3457L74.0659 36.3457L74.0659 36.2259L74.1059 36.2259L74.1059 36.0659L74.1458 36.0659L74.1458 35.9059C74.2334 35.6367 74.2649 35.2701 74.3455 34.9856L74.3455 34.5458C74.385 34.4049 74.4393 33.6192 74.3854 33.4253L74.3455 33.4253L74.3455 32.9857C74.2656 32.5725 74.1857 32.159 74.1059 31.7454L74.0659 31.7454L74.0659 31.6254L74.026 31.6254L74.026 31.465L73.9861 31.465L73.9861 31.3452L73.9461 31.3452L73.9461 31.2254L73.9062 31.2254L73.9062 31.1053L73.8663 31.1053L73.8663 31.0255L73.8263 31.0255L73.8263 30.9051L73.7864 30.9051L73.7864 30.8252L73.7465 30.8252L73.7465 30.7054L73.7066 30.7054C73.6932 30.6519 73.6799 30.5986 73.6666 30.5451L73.6267 30.5451L73.6267 30.4652L73.5867 30.4652L73.4669 30.1052C73.4403 30.0922 73.4137 30.0786 73.3871 30.0656L73.3871 29.9851L73.3471 29.9851L73.3471 29.905L73.3072 29.905L73.3072 29.8251L73.2672 29.8251L73.2672 29.745C73.2406 29.7319 73.214 29.7183 73.1874 29.7053C73.174 29.6518 73.1608 29.5985 73.1474 29.5453C73.1208 29.5317 73.0942 29.5184 73.0676 29.5048L73.0676 29.4252C73.041 29.4119 73.0143 29.3986 72.9877 29.385L72.9877 29.3051C72.9611 29.2918 72.9345 29.2785 72.9079 29.2652L72.9079 29.185C72.8812 29.1717 72.8546 29.1584 72.8279 29.1451L72.8279 29.0649C72.788 29.0386 72.7481 29.012 72.7082 28.9851L72.7082 28.9052C72.6682 28.8786 72.6283 28.8516 72.5884 28.825L72.5884 28.7451C72.5218 28.6916 72.4553 28.6384 72.3887 28.5848L72.3887 28.505C72.3089 28.4384 72.229 28.3716 72.149 28.305C71.9228 28.0648 71.6964 27.8252 71.4702 27.585L71.3903 27.585C71.3371 27.5179 71.2839 27.4516 71.2306 27.3848L71.1507 27.3848C71.1241 27.3448 71.0974 27.3049 71.0708 27.2647L70.991 27.2647C70.9644 27.2247 70.9377 27.1848 70.9111 27.1449L70.8312 27.1449C70.8179 27.1179 70.8046 27.0913 70.7913 27.065C70.7513 27.0517 70.7115 27.0384 70.6715 27.0251L70.6715 26.9848L70.5916 26.9848C70.5783 26.9582 70.565 26.9316 70.5517 26.905L70.4718 26.905C70.4585 26.8781 70.4452 26.8514 70.4318 26.8248C70.3786 26.8115 70.3254 26.7982 70.2721 26.7849C70.2589 26.7582 70.2455 26.7313 70.2323 26.7047L70.1523 26.7047L70.1523 26.6651L70.0725 26.6651L70.0725 26.6249L69.9926 26.6249L69.9926 26.5849L69.9128 26.5849C69.8994 26.5583 69.886 26.5317 69.8728 26.505C69.753 26.4648 69.6331 26.4249 69.5134 26.385L69.5134 26.3447L69.4335 26.3447L69.4335 26.3051C69.3802 26.2915 69.327 26.2785 69.2738 26.2649L69.2738 26.2249L69.1539 26.2249L69.1539 26.1847L69.0741 26.1847L69.0741 26.1451L68.9543 26.1451L68.9543 26.1048L68.8744 26.1048L68.8744 26.0649C68.4219 25.9445 67.9692 25.8244 67.5166 25.7046L67.277 25.7046C66.9066 25.5964 65.8763 25.5029 65.44 25.6248L65.0008 25.6248L65.0008 25.6644L64.7213 25.6644L64.7213 25.7046L64.4816 25.7046L64.4816 25.7445L64.2819 25.7445L64.2819 25.7848L64.0823 25.7848L64.0823 25.8244C63.9757 25.8377 63.8692 25.8513 63.7628 25.8649L63.7628 25.9046C63.6696 25.9179 63.5764 25.9312 63.4832 25.9445L63.4832 25.9848L63.3634 25.9848L63.3634 26.0247L63.2436 26.0247L63.2436 26.0649L63.1238 26.0649L63.1238 26.1048C63.0573 26.1184 62.9907 26.1315 62.9241 26.1451L62.9241 26.1847L62.8442 26.1847L62.8442 26.2249L62.7244 26.2249L62.7244 26.2649C62.6712 26.2785 62.618 26.2915 62.5647 26.3051L62.5647 26.3447L62.4849 26.3447L62.4849 26.385L62.3651 26.385L62.3651 26.4249C62.3118 26.4382 62.2586 26.4515 62.2054 26.4648L62.2054 26.505C62.1521 26.5181 62.0988 26.5317 62.0456 26.5447C62.0323 26.5713 62.0189 26.598 62.0057 26.6249C61.9257 26.6515 61.8459 26.6781 61.766 26.7047C61.7528 26.7313 61.7394 26.7582 61.7261 26.7849C61.6728 26.7982 61.6196 26.8115 61.5664 26.8248L61.5664 26.8647C61.5264 26.8781 61.4865 26.8917 61.4465 26.905C61.4333 26.9316 61.4199 26.9582 61.4066 26.9848L61.3268 26.9848L61.3268 27.0251C61.2868 27.0384 61.2469 27.0517 61.207 27.065C61.1936 27.0913 61.1804 27.1179 61.167 27.1449L61.0872 27.1449C61.0605 27.1848 61.0339 27.2247 61.0073 27.2647L60.9274 27.2647C60.9008 27.3049 60.8741 27.3448 60.8475 27.3848L60.7677 27.3848C60.7144 27.4516 60.6612 27.5179 60.6079 27.585L60.528 27.585C60.355 27.7717 60.182 27.9583 60.0089 28.145C59.8758 28.2648 59.7427 28.3851 59.6096 28.505L59.6096 28.5848C59.543 28.6384 59.4764 28.6916 59.4098 28.7451L59.4098 28.825C59.37 28.8516 59.33 28.8786 59.2901 28.9052L59.2901 28.9851C59.2501 29.012 59.2102 29.0386 59.1703 29.0649L59.1703 29.1451C59.1437 29.1584 59.117 29.1717 59.0904 29.185C59.0771 29.2249 59.0638 29.2652 59.0505 29.3051L59.0105 29.3051L59.0105 29.385C58.9839 29.3986 58.9572 29.4119 58.9306 29.4252C58.9174 29.4651 58.904 29.5048 58.8908 29.5453L58.8508 29.5453C58.8375 29.5985 58.8242 29.6518 58.8109 29.7053C58.7842 29.7183 58.7576 29.7319 58.731 29.745C58.7043 29.8251 58.6777 29.905 58.6511 29.9851C58.6245 29.9985 58.5979 30.0118 58.5713 30.0251C58.5579 30.0786 58.5446 30.1319 58.5313 30.1854L58.4914 30.1854C58.4781 30.2386 58.4648 30.2919 58.4514 30.3454L58.4115 30.3454L58.4115 30.4652L58.3716 30.4652L58.3716 30.5451L58.3316 30.5451C58.3184 30.5986 58.305 30.6519 58.2917 30.7054L58.2518 30.7054L58.2518 30.8252L58.2119 30.8252L58.2119 30.9051L58.1719 30.9051L58.1719 31.0255L58.1319 31.0255L58.1319 31.1053L58.0921 31.1053L58.0921 31.2254L58.0521 31.2254L58.0521 31.3452L58.0121 31.3452L58.0121 31.465L57.9722 31.465C57.9589 31.5588 57.9456 31.652 57.9323 31.7454L57.8923 31.7454C57.879 31.8519 57.8658 31.9587 57.8524 32.0655L57.8125 32.0655C57.7992 32.1989 57.7859 32.3323 57.7726 32.4657C57.648 32.8766 57.6128 33.4192 57.6128 33.9456L57.6128 34.5458L57.6527 34.5458L57.6527 34.9856C57.7326 35.3992 57.8125 35.8124 57.8923 36.2259L57.9323 36.2259C57.9456 36.3191 57.9589 36.4126 57.9722 36.5061L58.0121 36.5061L58.0121 36.6261L58.0521 36.6261L58.0521 36.7459L58.0921 36.7459L58.0921 36.8657L58.1319 36.8657Z" id="Combinedshape8" fill="#FFFFFF" fillrule="evenodd" stroke="none" />
</svg>